<?xml version="1.0" standalone="no"?>
<!DOCTYPE svg PUBLIC "-//W3C//DTD SVG 20010904//EN"
 "http://www.w3.org/TR/2001/REC-SVG-20010904/DTD/svg10.dtd">
<svg version="1.0" xmlns="http://www.w3.org/2000/svg"
 width="128.000000pt" height="128.000000pt" viewBox="0 0 128.000000 128.000000"
 preserveAspectRatio="xMidYMid meet">
<metadata>
Created by potrace 1.11, written by Peter Selinger 2001-2013
</metadata>
<g transform="translate(0.000000,128.000000) scale(0.100000,-0.100000)"
fill="#000000" stroke="none">
<path d="M861 1172 c-63 -9 -86 -49 -82 -141 2 -51 1 -54 -16 -40 -17 13 -17
13 0 -7 18 -22 19 -58 2 -60 -22 -2 -44 9 -38 19 3 5 1 7 -4 4 -6 -4 -26 -1
-44 7 -40 16 -240 13 -237 -3 1 -3 -5 -21 -14 -39 -10 -23 -13 -59 -11 -122 2
-83 -6 -116 -23 -89 -5 8 -3 9 6 4 9 -5 11 -4 6 4 -4 6 -11 9 -16 6 -11 -7
-61 16 -55 25 2 4 -46 8 -108 9 -104 2 -114 0 -137 -21 -31 -28 -33 -43 -32
-285 0 -219 0 -213 10 -212 14 3 72 -23 72 -33 0 -5 5 -6 10 -3 6 3 13 -1 16
-10 6 -13 8 -14 15 -3 7 10 9 10 9 1 0 -7 9 -13 19 -13 11 0 22 -6 24 -12 4
-10 6 -10 6 0 1 6 6 12 12 12 5 0 7 -5 3 -12 -4 -6 -3 -8 4 -4 5 3 13 0 16 -6
3 -7 3 -2 0 12 l-5 25 21 -25 c13 -16 18 -18 14 -7 -8 21 9 22 40 2 19 -13 23
-13 23 -1 0 8 -7 12 -16 9 -14 -4 -14 -3 -1 6 9 6 19 6 24 1 4 -4 15 -6 24 -3
9 4 13 2 9 -4 -4 -6 0 -13 8 -16 9 -4 12 -1 8 9 -4 10 2 14 22 14 16 0 24 -4
20 -11 -4 -6 2 -5 14 3 12 7 19 18 17 24 -2 6 2 11 10 11 7 0 10 -5 7 -10 -4
-6 1 -8 11 -4 14 6 16 3 12 -16 -3 -12 -3 -16 0 -9 7 14 94 17 94 3 0 -5 8 -8
18 -6 9 1 24 -3 32 -9 13 -9 13 -9 2 5 -11 14 -9 17 14 17 15 -1 21 -4 14 -8
-8 -5 -7 -9 5 -13 9 -4 13 -3 10 2 -11 19 15 22 42 5 19 -11 22 -11 10 -1 -16
14 -16 15 8 19 17 4 29 0 35 -11 6 -10 10 -11 10 -3 0 6 7 12 16 12 8 0 13 4
10 9 -14 22 25 18 43 -4 10 -14 22 -25 26 -25 4 0 2 7 -5 15 -17 21 -1 19 23
-3 11 -9 17 -11 13 -4 -5 8 0 12 16 12 18 0 20 -2 8 -10 -22 -14 -3 -12 20 3
17 10 22 9 30 -3 6 -10 10 -11 10 -2 0 6 8 12 18 12 14 0 15 -2 2 -10 -22 -14
-3 -12 20 2 17 11 22 10 30 -2 9 -13 10 -13 10 0 0 13 1 13 10 0 6 -10 10 -11
10 -2 0 6 7 12 16 12 11 0 14 -4 8 -13 -5 -7 -1 -4 9 6 10 11 17 14 17 7 0
-10 3 -10 15 0 9 7 14 18 12 24 -3 6 5 22 17 35 11 13 16 21 9 17 -6 -3 -14
-2 -17 3 -4 5 2 12 11 14 13 3 12 5 -6 6 -17 1 -21 5 -17 17 3 9 6 23 7 32 0
14 2 13 9 -3 7 -16 8 -14 7 12 -1 20 -6 28 -12 23 -12 -10 -13 29 -1 48 4 7 2
12 -4 12 -6 0 -9 4 -5 10 3 5 13 6 22 3 15 -6 16 -5 3 9 -8 9 -18 14 -22 11
-4 -2 -5 3 -2 11 3 9 9 14 13 12 4 -3 7 8 6 24 0 18 -4 25 -10 20 -12 -10 -13
29 -1 48 4 7 2 12 -4 12 -6 0 -9 4 -5 10 3 5 13 6 22 3 15 -6 16 -5 3 9 -8 9
-18 14 -22 11 -4 -2 -5 3 -2 11 3 9 9 14 13 12 4 -3 7 8 6 24 0 18 -4 25 -10
20 -12 -10 -13 29 -1 48 4 7 2 12 -4 12 -6 0 -9 4 -5 10 3 5 13 6 22 3 15 -6
16 -5 3 9 -8 9 -18 14 -22 11 -4 -2 -5 3 -2 11 3 9 9 14 13 12 4 -3 7 8 6 24
0 18 -4 25 -10 20 -12 -10 -13 29 -1 48 4 7 2 12 -4 12 -6 0 -9 4 -5 10 3 5
13 6 22 3 15 -6 16 -5 3 9 -8 9 -18 14 -22 11 -4 -2 -5 3 -2 11 3 9 9 14 13
12 4 -3 7 5 8 17 0 12 -1 16 -4 10 -3 -7 -9 -13 -14 -13 -6 0 -7 6 0 17 5 10
5 26 0 41 -5 13 -5 21 -1 18 5 -3 9 1 9 9 0 8 -3 12 -7 10 -3 -2 -24 13 -46
33 -22 20 -45 37 -52 38 -35 3 -37 4 -22 15 13 9 12 10 -2 5 -20 -6 -50 3 -44
13 2 3 -21 8 -52 9 -32 2 -70 4 -87 5 -16 1 -41 1 -54 -1z"/>
<path d="M1190 1096 c0 -2 8 -10 18 -17 15 -13 16 -12 3 4 -13 16 -21 21 -21
13z"/>
<path d="M1226 858 c3 -4 9 -8 15 -8 5 0 9 4 9 8 0 5 -7 9 -15 9 -8 0 -12 -4
-9 -9z"/>
<path d="M395 740 c-3 -5 -1 -10 4 -10 6 0 11 5 11 10 0 6 -2 10 -4 10 -3 0
-8 -4 -11 -10z"/>
<path d="M1226 698 c3 -4 9 -8 15 -8 5 0 9 4 9 8 0 5 -7 9 -15 9 -8 0 -12 -4
-9 -9z"/>
<path d="M1226 538 c3 -4 9 -8 15 -8 5 0 9 4 9 8 0 5 -7 9 -15 9 -8 0 -12 -4
-9 -9z"/>
<path d="M1226 378 c3 -4 9 -8 15 -8 5 0 9 4 9 8 0 5 -7 9 -15 9 -8 0 -12 -4
-9 -9z"/>
<path d="M110 201 c0 -6 4 -13 10 -16 6 -3 7 1 4 9 -7 18 -14 21 -14 7z"/>
<path d="M870 180 c0 -5 5 -10 11 -10 5 0 7 5 4 10 -3 6 -8 10 -11 10 -2 0 -4
-4 -4 -10z"/>
</g>
</svg>
